<?xml version="1.0"?>
<svg version="1.1" xmlns="http://www.w3.org/2000/svg" width="190" height="102" style=""><path fill="#000000" d="M36.08,55.4l-1-3.44s-1.88-0.64-4.52-0.64c-4.28,0-6.68,3.12-6.68,9.8c0,6.48,2.52,9.28,6.8,9.28c2.08,0,4.4-0.72,4.4-0.72l0-5.04l-3-0.92l0-3.28l11.52-0.2l0,3.48l-2.72,0.92l0,8.16s-4.12,2.68-10.88,2.68c-8.12,0-12.8-4.88-12.8-14.16c0-9.4,5.28-15,13.48-15c4.84,0,9.32,1.88,9.32,1.88l-0.2,7.2l-3.72,0z M59.9804,53c6.48,0,10.08,3.92,10.08,10.8c0,7.2-4.2,11.6-10.68,11.6c-6.52,0-10.2-3.4-10.2-11c0-7.2,4.28-11.4,10.8-11.4z M59.7804,57.8c-2.92,0-4.4,1.6-4.4,6.4c0,4.4,1.28,6.4,4.2,6.4c2.88,0,4.28-1.8,4.28-6.6c0-4.08-1.2-6.2-4.08-6.2z M90.7608,70.2l0.88-4.4l3.8,0l0,9.2l-20,0l0-3.4l3-1.2l0-18.8l-3-1.2l0-3.4l12.2-0.2l0,3.6l-3,1.2l0,18.6l6.12,0z M110.8212,53c6.48,0,10.08,3.92,10.08,10.8c0,7.2-4.2,11.6-10.68,11.6c-6.52,0-10.2-3.4-10.2-11c0-7.2,4.28-11.4,10.8-11.4z M110.6212,57.8c-2.92,0-4.4,1.6-4.4,6.4c0,4.4,1.28,6.4,4.2,6.4c2.88,0,4.28-1.8,4.28-6.6c0-4.08-1.2-6.2-4.08-6.2z M143.4816,68.48l2,3.52c-1,0.88-4.12,3.4-8.6,3.4c-6.6,0-10.4-4.08-10.4-10.88c0-7.12,4-11.52,11-11.52c3.44,0,7,1.4,7,1.4l-0.2,6.56l-3.6,0l-0.56-2.84s-1.16-0.32-2.76-0.32c-2.88,0-4.68,1.92-4.68,5.92c0,4.36,1.68,6.88,5,6.88c2.8,0,4.56-1.4,5.8-2.12z M163.902,75l-0.72-2.6s-3.08,3-6.48,3c-3.88,0-6.24-2.28-6.24-6.28c0-4.72,3.56-6.6,9.64-6.6l2.8,0l0-2.2c0-2.04-1.08-2.92-3.08-2.92c-2.04,0-3.52,0.6-3.52,0.6l-0.6,2.52l-3.6,0l-0.28-5.92s4.84-1.6,8.68-1.6c6.08,0,8.4,2.12,8.4,7.92l0,9.88l3,0.72l0,3.2z M162.902,65.92l-2.28,0c-3.12,0-4.36,0.8-4.36,2.6c0,1.52,0.84,2.4,2.36,2.4c2.12,0,4.28-2.32,4.28-2.32l0-2.68z M185.7224,70.8l3.6,1l0,3.2l-12.84,0l0-3.2l3.2-1l0-22.48l-3.2-0.8l0-3.2l9.24-0.32l0,26.8z"/><path fill="#" d=""/></svg>
